<svg width="19" height="19" viewBox="0 0 19 19" fill="none" xmlns="http://www.w3.org/2000/svg">
<path d="M9.66683 18.0604C14.4988 18.0604 18.4168 14.1486 18.4168 9.32188C18.4168 4.49518 14.4988 0.583333 9.66683 0.583333C4.83488 0.583333 0.916829 4.49518 0.916829 9.32188C0.916829 14.1486 4.83488 18.0604 9.66683 18.0604Z" fill="white" stroke="white" stroke-width="0.833333"/>
<path d="M18.0002 9.32133C18.0002 6.02203 16.0775 3.17126 13.29 1.8252V16.8174C16.0775 15.4714 18.0002 12.6206 18.0002 9.32133Z" fill="#D80027"/>
<path d="M1.33359 9.32133C1.33359 12.6206 3.25628 15.4714 6.04374 16.8175V1.8252C3.25628 3.17126 1.33359 6.02203 1.33359 9.32133Z" fill="#D80027"/>
<path d="M11.1177 10.4092L12.5669 9.68557L11.8423 9.32376V8.60011L10.393 9.32376L11.1177 7.87647H10.393L9.6684 6.79102L8.94376 7.87647H8.21912L8.94376 9.32376L7.49448 8.60011V9.32376L6.76987 9.68557L8.21912 10.4092L7.85681 11.1329H9.3061V12.2183H10.0307V11.1329H11.48L11.1177 10.4092Z" fill="#D80027"/>
</svg>
