<svg width="252" height="243" viewBox="0 0 252 243" fill="none" xmlns="http://www.w3.org/2000/svg">
<path fill-rule="evenodd" clip-rule="evenodd" d="M147.917 224.503C145.312 229.617 139.031 231.667 133.908 229.057L69.7412 196.374L68.1262 195.551L3.95984 162.868C-1.16381 160.259 -3.19937 153.973 -0.594364 148.859L37.2278 74.6028C39.8328 69.4884 46.1139 67.4388 51.2376 70.0486L181.185 136.237C186.309 138.847 188.344 145.133 185.739 150.247L147.917 224.503ZM190.641 117.673L60.6931 51.4846C45.3407 43.6649 26.4836 49.7948 18.6638 65.1472L-19.1583 139.403C-26.9781 154.755 -20.8481 173.613 -5.49573 181.432L50.1961 209.799L40.7406 228.363L3.61268 209.452C-1.49241 206.852 -7.7968 208.901 -10.3971 214.006C-12.9973 219.111 -10.948 225.415 -5.84287 228.016L86.9769 275.293C92.082 277.894 98.3864 275.844 100.987 270.739C103.587 265.634 101.538 259.33 96.4324 256.73L59.3045 237.818L68.7601 219.254L124.452 247.621C139.804 255.441 158.661 249.311 166.481 233.958L204.303 159.703C212.123 144.35 205.993 125.493 190.641 117.673Z" fill="url(#paint0_linear_823_4437)"/>
<mask id="mask0_823_4437" style="mask-type:alpha" maskUnits="userSpaceOnUse" x="-23" y="48" width="231" height="229">
<path fill-rule="evenodd" clip-rule="evenodd" d="M147.917 224.503C145.312 229.617 139.031 231.667 133.908 229.057L69.7412 196.374L68.1262 195.551L3.95984 162.868C-1.16381 160.259 -3.19937 153.973 -0.594364 148.859L37.2278 74.6028C39.8328 69.4884 46.1139 67.4388 51.2376 70.0486L181.185 136.237C186.309 138.847 188.344 145.133 185.739 150.247L147.917 224.503ZM190.641 117.673L60.6931 51.4846C45.3407 43.6649 26.4836 49.7948 18.6638 65.1472L-19.1583 139.403C-26.9781 154.755 -20.8481 173.613 -5.49573 181.432L50.1961 209.799L40.7406 228.363L3.61268 209.452C-1.49241 206.852 -7.7968 208.901 -10.3971 214.006C-12.9973 219.111 -10.948 225.415 -5.84287 228.016L86.9769 275.293C92.082 277.894 98.3864 275.844 100.987 270.739C103.587 265.634 101.538 259.33 96.4324 256.73L59.3045 237.818L68.7601 219.254L124.452 247.621C139.804 255.441 158.661 249.311 166.481 233.958L204.303 159.703C212.123 144.35 205.993 125.493 190.641 117.673Z" fill="white"/>
</mask>
<g mask="url(#mask0_823_4437)">
<rect x="28.4666" width="250" height="250" transform="rotate(26.992 28.4666 0)" fill="url(#paint1_linear_823_4437)"/>
</g>
<defs>
<linearGradient id="paint0_linear_823_4437" x1="125.667" y1="84.579" x2="40.567" y2="251.655" gradientUnits="userSpaceOnUse">
<stop stop-color="white" stop-opacity="0.17"/>
<stop offset="1" stop-color="white" stop-opacity="0"/>
</linearGradient>
<linearGradient id="paint1_linear_823_4437" x1="153.467" y1="0" x2="153.467" y2="250" gradientUnits="userSpaceOnUse">
<stop stop-color="white" stop-opacity="0.17"/>
<stop offset="1" stop-color="white" stop-opacity="0"/>
</linearGradient>
</defs>
</svg>
