<svg width="241" height="241" viewBox="0 0 241 241" fill="none" xmlns="http://www.w3.org/2000/svg">
<path opacity="0.3" fill-rule="evenodd" clip-rule="evenodd" d="M46.5826 202.177C30.7484 186.248 20.1116 164.955 17.7768 140.855C12.4068 85.4256 52.9878 36.1381 108.417 30.7681C163.846 25.3982 213.134 65.9792 218.504 121.408C223.874 176.838 183.293 226.125 127.863 231.495C103.763 233.83 80.8242 227.478 62.1512 214.996L35.2835 247.628C31.7438 251.927 25.3892 252.542 21.09 249.003C16.7909 245.463 16.1752 239.108 19.7149 234.809L46.5826 202.177ZM125.919 211.422C81.5754 215.718 42.1455 183.254 37.8495 138.91C33.5535 94.5668 66.0183 55.1368 110.362 50.8408C154.705 46.5448 194.135 79.0096 198.431 123.353C202.727 167.696 170.262 207.126 125.919 211.422Z" fill="url(#paint0_linear_823_4453)"/>
<defs>
<linearGradient id="paint0_linear_823_4453" x1="218.99" y1="126.427" x2="8.22584" y2="146.845" gradientUnits="userSpaceOnUse">
<stop stop-color="#212338" stop-opacity="0.26"/>
<stop offset="1" stop-color="#212338" stop-opacity="0"/>
</linearGradient>
</defs>
</svg>
