<svg width="215" height="242" viewBox="0 0 215 242" fill="none" xmlns="http://www.w3.org/2000/svg">
<path opacity="0.3" fill-rule="evenodd" clip-rule="evenodd" d="M63.357 37.8467C48.8534 24.1143 25.2132 28.2462 16.2276 46.0841L-41.1131 159.914C-47.0368 171.674 -44.5457 185.927 -34.9841 194.98L29.6259 256.154C30.8079 257.273 32.2466 258.085 33.8156 258.518L115.813 281.144C129.514 284.925 143.979 278.509 150.374 265.816L211.508 144.454C220.494 126.617 209.743 105.161 190.075 101.68L117.141 88.7709L63.357 37.8467ZM193.755 135.512C196.75 129.566 193.167 122.414 186.611 121.253L118.023 109.114L68.6757 207.075L138.986 226.476C143.554 227.737 148.375 225.598 150.507 221.367L193.755 135.512ZM137.859 246.475C136.47 246.297 135.081 246.02 133.699 245.638L59.5558 225.179L50.7899 242.581L121.101 261.983C125.668 263.243 130.489 261.104 132.621 256.873L137.859 246.475ZM42.1419 215.564L-17.0984 159.474C-17.449 159.142 -17.7901 158.803 -18.1216 158.457L-23.3603 168.857C-25.3349 172.777 -24.5045 177.528 -21.3173 180.546L33.5926 232.536L42.1419 215.564ZM-5.47452 133.351C-7.44912 137.271 -6.61872 142.022 -3.43155 145.04L51.4784 197.03L100.27 100.171L49.6902 52.281C44.8556 47.7036 36.9756 49.0809 33.9804 55.0269L-5.47452 133.351Z" fill="url(#paint0_linear_823_4461)"/>
<defs>
<linearGradient id="paint0_linear_823_4461" x1="127.291" y1="68.6226" x2="31.988" y2="257.814" gradientUnits="userSpaceOnUse">
<stop stop-color="#212338" stop-opacity="0.26"/>
<stop offset="1" stop-color="#212338" stop-opacity="0"/>
</linearGradient>
</defs>
</svg>
