<svg width="21" height="25" viewBox="0 0 21 25" fill="none" xmlns="http://www.w3.org/2000/svg">
<path d="M19.8113 8.43436C18.9591 8.95269 18.2664 9.69303 17.8083 10.5749C17.3502 11.4568 17.1444 12.4465 17.2131 13.4364C17.2819 14.4263 17.6226 15.3786 18.1983 16.1897C18.7739 17.0008 19.5625 17.6397 20.4782 18.037C20.3804 18.3109 20.2897 18.5952 20.1797 18.8726C19.5546 20.403 18.6778 21.8196 17.5851 23.0645C17.123 23.7412 16.4187 24.2178 15.6154 24.3974C14.8122 24.5771 13.9701 24.4464 13.2604 24.0319C12.5544 23.6861 11.7778 23.5062 10.9906 23.5062C10.2034 23.5062 9.4268 23.6861 8.72086 24.0319C8.49348 24.1333 8.26028 24.2213 8.02248 24.2954C7.53081 24.4876 6.9942 24.5369 6.47539 24.4374C5.95658 24.3379 5.47701 24.0939 5.09274 23.7337C3.95452 22.6918 3.01936 21.4506 2.33411 20.0723C1.00571 17.6763 0.4093 14.9478 0.617823 12.2206C0.688759 10.9123 1.15232 9.65498 1.94886 8.61041C2.7454 7.56585 3.83849 6.78182 5.0875 6.3592C6.20765 6.00532 7.4169 6.04945 8.50786 6.48402C10.9522 7.42712 10.4668 7.35084 12.8536 6.48402C13.9222 6.03594 15.1015 5.91553 16.2396 6.13827C17.3778 6.36102 18.4228 6.91674 19.2403 7.73397C19.3837 7.87815 19.5173 8.03163 19.6402 8.19339C19.703 8.2662 19.7536 8.35982 19.8113 8.43436Z" fill="white"/>
<path d="M15.3566 0.208496C15.4261 0.889708 15.3553 1.57785 15.1485 2.23101C14.9416 2.88417 14.603 3.48868 14.1533 4.00773C13.7036 4.52678 13.1523 4.94951 12.5328 5.25017C11.9133 5.55083 11.2387 5.72313 10.55 5.75658C9.87951 3.51828 12.7115 0.231035 15.3566 0.208496Z" fill="white"/>
</svg>
