<svg width="99" height="39" viewBox="0 0 99 39" fill="none" xmlns="http://www.w3.org/2000/svg">
<path d="M0 38.1861V8.53531H3.23992V11.8253C6.22246 8.44407 9.7349 7.35415 13.8378 8.20074C16.4886 8.76743 18.8304 10.3146 20.3984 12.535C22.0829 14.824 22.8871 17.6475 22.6626 20.4851C22.4382 23.3227 21.2003 25.9833 19.1771 27.9763C15.7 31.4641 8.76595 32.9697 3.28534 27.2666V38.1861H0ZM11.1782 11.1562C6.606 11.1562 3.06329 14.8568 3.06833 19.5764C3.05026 20.6766 3.25029 21.7693 3.65679 22.7911C4.06329 23.8128 4.66812 24.7431 5.43605 25.5277C6.20399 26.3123 7.11967 26.9355 8.12977 27.3612C9.13986 27.7868 10.2242 28.0062 11.3195 28.0068C15.7908 27.9814 19.4294 24.149 19.3941 19.5004C19.4075 18.4085 19.2048 17.3249 18.7977 16.3125C18.3907 15.3 17.7875 14.3789 17.0231 13.6026C16.2587 12.8262 15.3484 12.2102 14.345 11.7902C13.3417 11.3703 12.2652 11.1548 11.1782 11.1562Z" fill="black"/>
<path d="M51.7037 30.3386H48.5597V27.1956C45.6276 30.3133 42.2867 31.6313 38.31 30.9318C35.6059 30.4374 33.195 28.9161 31.5778 26.6836C29.7965 24.3819 28.9345 21.4952 29.1604 18.5887C29.3862 15.6821 30.6838 12.9648 32.7991 10.9686C33.8721 9.95841 35.136 9.17468 36.5158 8.6638C37.8957 8.15291 39.3636 7.92523 40.8326 7.99424C42.3016 8.06324 43.7419 8.42753 45.0682 9.06555C46.3946 9.70357 47.5801 10.6024 48.5546 11.7087C48.5546 10.7607 48.5798 10.0054 48.5546 9.25007C48.5546 8.69244 48.7111 8.43897 49.3015 8.46432C50.0787 8.49981 50.8559 8.46432 51.7138 8.46432L51.7037 30.3386ZM40.6012 11.1562C36.1248 11.1308 32.4459 14.9024 32.4156 19.5561C32.3853 24.1185 36.1349 27.9966 40.581 28.0067C45.027 28.0169 48.6555 24.3517 48.706 19.6828C48.7666 14.8973 45.239 11.1815 40.6163 11.1562H40.6012Z" fill="black"/>
<path d="M66.5696 10.9786L64.44 13.2142C63.9543 12.8004 63.4381 12.4242 62.8957 12.0888C62.1593 11.6737 61.3744 11.3519 60.5591 11.1307C59.9262 10.9813 59.2611 11.0585 58.6788 11.3491C58.0965 11.6398 57.6334 12.1255 57.3697 12.7225C57.1122 13.2911 57.0729 13.9352 57.2592 14.5311C57.4454 15.1271 57.8442 15.633 58.379 15.9517C59.9384 17.0315 61.5937 17.9794 63.1834 18.9933C64.5813 19.9007 65.737 21.0211 66.2113 22.699C66.4941 23.7214 66.5285 24.7971 66.3116 25.8356C66.0947 26.8741 65.6328 27.8451 64.9648 28.6672C64.2968 29.4892 63.4422 30.1381 62.4727 30.5595C61.5032 30.9809 60.4472 31.1625 59.3934 31.0888C56.8095 30.9773 54.801 29.8215 53.1406 27.7278L55.1593 25.4821C55.8708 26.0702 56.4815 26.6582 57.1779 27.1297C57.8876 27.6644 58.755 27.9454 59.642 27.928C60.529 27.9105 61.3848 27.5956 62.0731 27.0333C63.7335 25.6393 63.7183 23.3175 61.947 22.0654C60.7358 21.2036 59.4237 20.5141 58.1267 19.7385C56.5118 18.7601 55.0079 17.6651 54.4275 15.7236C53.6705 13.1889 54.377 10.7759 56.3452 9.2145C57.3862 8.45319 58.6253 8.0128 59.9113 7.94708C61.1973 7.88137 62.4746 8.19317 63.5871 8.84444C64.5964 9.45277 65.52 10.2132 66.5696 10.9786Z" fill="black"/>
<path d="M74.3351 8.48964H78.5995V11.3538H74.3502V12.4133C74.3502 17.0366 74.3502 21.6582 74.3502 26.2781C74.3502 27.8344 74.4714 27.9459 76.0358 27.9662C76.5405 27.9662 77.0451 27.9662 77.6406 27.9662V30.8861C76.4665 30.9974 75.2872 31.0448 74.108 31.0281C72.2155 30.9216 71.186 29.8621 71.1053 27.9864C71.0144 25.9587 71.0447 23.9309 71.0397 21.8728C71.0397 18.7805 71.0397 15.6881 71.0397 12.5958V11.3893H67.3203V8.48457H71.0397V0.312744H74.32L74.3351 8.48964Z" fill="black"/>
<path d="M27.5757 0.165771H24.1289V30.4958H27.5757V0.165771Z" fill="#9DCB4C"/>
<path d="M83.4898 0.78418H79.9219V31.2917H83.4898V0.78418Z" fill="black"/>
<path d="M85.4149 19.8755L97.2492 9.17409L92.5256 9.15381L80.6055 19.7741L93.2775 31.2816L98.0011 31.2613L85.4149 19.8755Z" fill="#9DCB4C"/>
</svg>
