<svg width="122" height="48" viewBox="0 0 122 48" fill="none" xmlns="http://www.w3.org/2000/svg">
<path d="M0.315796 47.6805V10.8595H4.32307V14.9451C8.01201 10.7462 12.3563 9.39268 17.431 10.444C20.7096 11.1477 23.606 13.069 25.5454 15.8265C27.6289 18.669 28.6235 22.1753 28.3459 25.6991C28.0683 29.2229 26.5373 32.5268 24.0349 35.0019C19.7342 39.333 11.1579 41.2027 4.37925 34.1205V47.6805H0.315796ZM14.1415 14.1141C8.48639 14.1141 4.10461 18.7097 4.11085 24.5706C4.08849 25.9368 4.3359 27.2938 4.83868 28.5626C5.34145 29.8314 6.08953 30.9867 7.03935 31.961C7.98916 32.9354 9.12172 33.7094 10.371 34.2379C11.6204 34.7664 12.9615 35.039 14.3163 35.0396C19.8466 35.0082 24.347 30.2489 24.3033 24.4762C24.3198 23.1203 24.0691 21.7747 23.5657 20.5174C23.0622 19.2601 22.3162 18.1162 21.3707 17.1521C20.4253 16.1881 19.2994 15.4231 18.0584 14.9015C16.8173 14.38 15.486 14.1124 14.1415 14.1141Z" fill="white"/>
<path d="M64.2639 37.9354H60.3752V34.0324C56.7487 37.904 52.6166 39.5407 47.698 38.672C44.3534 38.0581 41.3716 36.1689 39.3714 33.3966C37.1682 30.5382 36.102 26.9535 36.3814 23.344C36.6608 19.7345 38.2657 16.3601 40.8819 13.8812C42.2091 12.6267 43.7723 11.6535 45.4789 11.0191C47.1856 10.3846 49.0011 10.1019 50.818 10.1876C52.635 10.2733 54.4164 10.7257 56.0569 11.518C57.6974 12.3103 59.1637 13.4264 60.369 14.8003C60.369 13.6231 60.4002 12.6851 60.369 11.7471C60.369 11.0546 60.5625 10.7399 61.2928 10.7713C62.254 10.8154 63.2153 10.7713 64.2764 10.7713L64.2639 37.9354ZM50.5318 14.1141C44.9953 14.0827 40.445 18.7663 40.4076 24.5454C40.3701 30.2111 45.0078 35.027 50.5069 35.0396C56.0059 35.0522 60.4938 30.5007 60.5562 24.7028C60.6311 18.76 56.2681 14.1456 50.5506 14.1141H50.5318Z" fill="white"/>
<path d="M82.652 13.894L80.0179 16.6702C79.4172 16.1563 78.7787 15.6891 78.1079 15.2727C77.197 14.7572 76.2263 14.3575 75.2179 14.0829C74.435 13.8973 73.6124 13.9932 72.8922 14.3541C72.172 14.715 71.5993 15.3182 71.273 16.0596C70.9546 16.7657 70.906 17.5655 71.1364 18.3056C71.3667 19.0456 71.86 19.6739 72.5214 20.0697C74.4502 21.4106 76.4975 22.5878 78.4637 23.8468C80.1927 24.9737 81.6221 26.365 82.2088 28.4487C82.5586 29.7183 82.6011 31.0541 82.3328 32.3437C82.0645 33.6334 81.4933 34.8393 80.6671 35.8601C79.8408 36.8809 78.7838 37.6868 77.5847 38.2101C76.3856 38.7334 75.0794 38.9588 73.776 38.8674C70.5802 38.7289 68.0959 37.2936 66.0424 34.6936L68.5391 31.9048C69.4192 32.6351 70.1745 33.3653 71.0359 33.9508C71.9137 34.6148 72.9865 34.9638 74.0836 34.9421C75.1807 34.9205 76.2391 34.5294 77.0905 33.8312C79.144 32.1 79.1253 29.2167 76.9344 27.6618C75.4364 26.5916 73.8135 25.7354 72.2093 24.7723C70.2119 23.5573 68.3518 22.1975 67.634 19.7864C66.6978 16.6388 67.5716 13.6422 70.0059 11.7033C71.2935 10.7578 72.8261 10.2109 74.4167 10.1293C76.0073 10.0477 77.587 10.4349 78.963 11.2437C80.2114 11.9991 81.3537 12.9434 82.652 13.894Z" fill="white"/>
<path d="M92.2583 10.802H97.5327V14.3588H92.2771V15.6745C92.2771 21.4158 92.2771 27.155 92.2771 32.8921C92.2771 34.8248 92.4269 34.9633 94.3618 34.9884C94.986 34.9884 95.6102 34.9884 96.3468 34.9884V38.6145C94.8945 38.7527 93.436 38.8116 91.9775 38.7908C89.6368 38.6586 88.3634 37.3429 88.2635 35.0136C88.1512 32.4955 88.1887 29.9774 88.1824 27.4215C88.1824 23.5814 88.1824 19.7413 88.1824 15.9012V14.4029H83.5822V10.7957H88.1824V0.647705H92.2396L92.2583 10.802Z" fill="white"/>
<path d="M34.4215 0.46582H30.1584V38.1304H34.4215V0.46582Z" fill="#9DCB4C"/>
<path d="M103.581 1.23267H99.1678V39.1176H103.581V1.23267Z" fill="white"/>
<path d="M105.959 24.9417L120.596 11.6524L114.754 11.6272L100.011 24.8158L115.684 39.1061L121.526 39.0809L105.959 24.9417Z" fill="#9DCB4C"/>
</svg>
