<?xml version="1.0" encoding="utf-8"?>
<!-- Generator: Adobe Illustrator 24.0.0, SVG Export Plug-In . SVG Version: 6.00 Build 0)  -->
<svg version="1.1" id="Layer_1" xmlns="http://www.w3.org/2000/svg" xmlns:xlink="http://www.w3.org/1999/xlink" x="0px" y="0px"
	 viewBox="0 0 425.5 245.2" style="enable-background:new 0 0 425.5 245.2;" xml:space="preserve">
<style type="text/css">
	.st0{fill:#FFFFFF;}
	.st1{fill:#EEEEEE;}
	.st2{opacity:0.2;fill:#000000;}
	.st3{fill:#AAE15D;}
	.st4{opacity:0.32;fill:#AAE15D;enable-background:new    ;}
	.st5{fill:#8ED728;}
	.st6{fill:#FFEDCA;}
	.st7{fill:#FFD67B;}
	.st8{fill:#F3BE65;}
	.st9{fill:#894D16;}
	.st10{opacity:0.58;fill:#F3BE65;enable-background:new    ;}
	.st11{opacity:0.58;}
	.st12{opacity:0.39;}
	.st13{opacity:0.15;}
</style>
<g id="BACKGROUND">
	<rect id="XMLID_303_" x="-38.5" y="-60" class="st0" width="500" height="500"/>
</g>
<g id="OBJECTS">
	<g id="XMLID_308_">
		<g id="XMLID_306_">
			<path id="XMLID_316_" class="st1" d="M407.7,146.5c0,3.7-0.2,7.5-0.6,11.3c-4.8,44.9-42.7,78-86.6,78c-4.1,0-8.3-0.3-12.5-0.9
				l-10.7-1.5c-33.4-4.8-67.3-6-101-3.6l-59.8,4.3C75.1,238.5,18.9,199.2,2,139.9c-1.3-4.6-2-9.4-2-14.1C0,113,4.8,100.6,13.6,91
				l1.9-2.1c3.9,8.5,12.5,14.4,22.5,14.4c13.7,0,24.8-11.1,24.8-24.8c0-10.7-6.7-19.7-16.2-23.2l4.2-4.5c17.4-18.8,46.3-21.4,66.8-6
				l1.9,1.5c15.2,11.4,34.9,13.2,51.4,4.8c0.5-0.3,1-0.5,1.5-0.8c25.7-13,53.5-19.9,81.5-20.7c-0.4,1.8-0.7,3.7-0.7,5.6
				c0,13.7,11.1,24.8,24.8,24.8c13.7,0,24.8-11.1,24.8-24.8c0-0.3,0-0.5,0-0.8c17.3,4,34.2,10.4,50.1,19.2
				C386.9,72.4,407.7,108.2,407.7,146.5z"/>
			<ellipse id="XMLID_307_" class="st1" cx="148.7" cy="23.2" rx="23.2" ry="23.2"/>
			<circle id="XMLID_309_" class="st1" cx="376.5" cy="35.7" r="12.5"/>
			<circle id="XMLID_310_" class="st1" cx="421" cy="117" r="4.5"/>
		</g>
		<g id="XMLID_299_">
			<ellipse id="XMLID_247_" class="st2" cx="211.9" cy="237.9" rx="190" ry="7.3"/>
			<g id="XMLID_134_">
				<path id="XMLID_270_" class="st3" d="M368.2,180.6V151h-33.6l0.2,29.6h-26.2l39-82.2h-34.8l-33.2,68.1l-8.4,17.3v24.6h63.4v30.4
					h33.6v-30.4h18v-27.8H368.2z"/>
				<path id="XMLID_283_" class="st4" d="M290.3,208.4c0.7-7.6-1.6-13.1-2.1-14.2c-0.1,4.8-1,9.6-2.7,14.2h-14.3v-24.6l8.4-17.3
					c2.4,3,4.9,7.1,5.9,10.8c0.2,0.7,0.5,1.3,0.7,2v0.1c0.4,1.2,0.7,2.5,1,3.7c0,0,0,0,0,0.1s0,0.2,0.1,0.4c0.1,0.4,0.2,0.7,0.2,1.1
					c0.1,0.4,0.1,0.7,0.2,1.1c0,0.1,0,0.1,0,0.2v0.1c0.1,0.4,0.1,0.9,0.2,1.3c0,0,0,0,0,0.1l0,0l0,0c0,0,7.1,7,7.2,21h-4.8V208.4z"
					/>
			</g>
			<path id="XMLID_260_" class="st3" d="M104.6,98.4l-39,82.2h26.2L91.6,151h33.6v29.6h18v27.8h-18v30.4H91.6v-30.4H28.2v-24.6
				l41.6-85.4H104.6z"/>
			<path id="XMLID_100_" class="st3" d="M208.5,83.1c-39.2,0-60.6,27.8-60.6,78.3c0,16.3,2.2,30.2,6.6,41.6
				c9.1,24,27.5,36.9,54.1,36.9c15,0,27.4-4.2,37-12.2c1.7-1.4,3.2-2.9,4.7-4.5s2.9-3.3,4.2-5.1c0.6-0.9,1.2-1.8,1.8-2.7
				c8-12.7,12.4-30,12.7-51.6c0-0.8,0-1.5,0-2.3C268.9,110.8,247.3,83.1,208.5,83.1z M186.8,173.6c-0.2-3.8-0.3-7.9-0.3-12.3
				c0-35.5,6.4-50.1,22.1-50.1c13.9,0,20.4,11.7,21.6,39.8c0.1,3.2,0.2,6.6,0.2,10.2c0,35.3-6.4,50-21.8,50
				C194.8,211.4,188.2,200.1,186.8,173.6z"/>
			<g id="XMLID_124_">
				<path id="XMLID_287_" class="st5" d="M254.4,218c-1.3,1.8-2.7,3.5-4.2,5.1c-11.9,1.8-28.6,7.1-29.8-3.4c-0.1-0.6-0.1-1.2,0-1.8
					C221.3,213.3,242.7,218.6,254.4,218z"/>
				<path id="XMLID_275_" class="st5" d="M268.9,163.6c-0.3,21.6-4.6,39-12.7,51.6c-6.4,0.3-20.5-3.3-26.8-0.1
					c-0.1,0.1-0.2,0.1-0.3,0.1c-0.3,0.1-0.5,0.2-0.8,0.3h-0.1h-0.1c-0.1,0-0.2,0-0.3,0.1c-0.1,0-0.2,0-0.3,0.1c-0.1,0-0.2,0-0.2,0.1
					c-0.1,0-0.2,0-0.2,0.1c-0.1,0-0.3,0.1-0.4,0.1l0,0c-0.1,0-0.3,0.1-0.5,0.1l0,0c-0.9,0.1-1.8,0.2-2.6,0.3l0,0c-0.2,0-0.4,0-0.7,0
					l0,0c-9.6,0.6-22.7,0.9-31.5-3.3c-1.5,0-2.3,0-2.3,0c-0.1,0-0.2,0-0.3,0l0,0c-0.6,0-0.9,0-0.9,0c-0.1,0-0.2,0-0.3,0
					c-7.4,0-15.2-1.1-22.3-3.4c-0.7-0.2-1.3-0.5-1.9-0.7c-0.2-0.1-0.5-0.2-0.7-0.3c-0.1,0-0.1,0-0.2-0.1c-0.6-0.2-1.1-0.5-1.7-0.7
					c-0.9-0.4-1.8-0.9-2.7-1.4c0,0-0.1,0-0.1-0.1c-0.4-0.3-0.8-0.5-1.2-0.8c-0.1-0.1-0.2-0.2-0.3-0.2l-0.1-0.1
					c-0.1-0.1-0.3-0.2-0.4-0.4c-0.1-0.1-0.2-0.2-0.3-0.2c-0.3-0.2-0.5-0.5-0.7-0.8l-0.1-0.1c-2.2-2.5,0.9-9.7,2.1-11.8
					c0-0.1,0.1-0.2,0.1-0.2c-2.3-7.2-1-11.5-1-11.5c3.4,0.8,6.1,4.2,6.1,4.2c2.4-2.9,7.5-4.2,11.1-4.4c-0.1-5.5,1.2-6.6,1.2-6.6
					c9.3,3,2.2,7.9,12.3,0c0.9,15.8,5.2,43.7,27.8,36.9c19.9-6,16.2-44.8,15.6-59.4C244.2,148,260.4,151,268.9,163.6
					C268.6,185.3,265.5,158.6,268.9,163.6z"/>
			</g>
			<g id="XMLID_7_">
				<path id="XMLID_286_" class="st6" d="M269.1,194.2c-0.4,0.9-0.9,1.8-1.4,2.5c-0.4,0.7-0.9,1.3-1.4,1.9c-1.1,1.2-2.2,2.3-3.5,3.1
					c-9.7,6.7-24.8,4.4-30.7,5c-0.8,0.1-2.1,0.2-3.7,0.2c-0.3,0-0.7,0-1,0c-1.6,0.1-3.5,0.1-5.6,0.2c-10.3,0.4-24.9,0.7-32.9,0.9
					c-3.4,0.1-5.6,0.1-5.6,0.1c-0.1,0-0.2,0-0.3,0s-0.2,0-0.3,0c-8.9-0.2-16.5-1.6-22.2-3.5c-3.6-1.2-6.4-2.5-8.2-3.9
					c-0.6-0.5-1.2-0.9-1.5-1.4c-0.2-0.2-0.3-0.4-0.4-0.6c-0.1-0.1-0.1-0.2-0.1-0.2c-2.2-4,2.2-11.2,2.4-11.6l0,0l0,0l0,0
					c-2.3-7.3-1-11.6-1-11.6c3.4,0.8,6.1,4.2,6.1,4.2c0.5-0.6,1.1-1.1,1.8-1.6c0.6-0.4,1.2-0.7,1.8-1c0.7-0.3,1.4-0.6,2.1-0.8
					c1.2-0.4,2.4-0.6,3.3-0.8c1.2-0.2,2-0.3,2-0.3c-0.1-5.5,1.7-7.8,1.7-7.8c2.4,0.8,4.5,6.4,5.4,6.4c0.7,0,1.8-2,10.2-8.1
					c0.6-0.4,1.2-0.9,1.9-1.3c1.6-1.1,3.5-2.4,5.6-3.8c0.3-0.2,0.6-0.4,0.9-0.6c0.5-0.3,0.9-0.6,1.4-0.9c1.8-1.2,3.7-2.3,5.6-3.4
					c0.9-0.5,1.7-1,2.6-1.4c1.4-0.8,2.9-1.5,4.4-2.2c0.7-0.3,1.4-0.7,2.1-1c1.3-0.6,2.6-1.1,3.9-1.6c1.8-0.7,3.5-1.3,5.3-1.9
					c1.9-0.6,3.9-1.1,5.9-1.5l0,0c0.1,0,0.3-0.1,0.4-0.1c3-0.6,6-0.9,9-1c0.2,0,0.4,0,0.5,0c2.1,0,4.2,0.1,6.3,0.4
					c2.9,0.4,5.8,1,8.7,2.1c6.1,2.2,11,6.6,14.4,12c1.1,1.8,2.1,3.7,2.9,5.6c0.3,0.8,0.6,1.6,0.9,2.4c1.3,3.7,2.1,7.5,2.4,11.3
					C271.7,184.5,271,190,269.1,194.2z"/>
				<path id="XMLID_264_" class="st7" d="M267.7,196.7c-0.4,0.7-0.9,1.3-1.4,1.9c-9,10.5-27.6,7.5-34.2,8.1
					c-0.8,0.1-2.1,0.2-3.7,0.2c-0.3,0-0.7,0-1,0c-1.6,0.1-3.5,0.1-5.6,0.2c-10.3,0.4-24.9,0.7-32.9,0.9c-3.4,0.1-5.6,0.1-5.6,0.1
					c-0.1,0-0.2,0-0.3,0s-0.2,0-0.3,0c-8.9-0.2-16.5-1.6-22.2-3.5c-3.6-1.2-6.4-2.5-8.2-3.9c-0.6-0.5-1.2-0.9-1.5-1.4
					c-0.2-0.2-0.3-0.4-0.4-0.6c-1.2-4.1,2.4-12.1,2.4-12.1c-2.3-7.3-0.6-10.1-0.6-10.1c3.4,0.8,6.1,4.2,6.1,4.2
					c0.5-0.6,1.1-1.1,1.8-1.6c0.6-0.4,1.2-0.7,1.8-1c0.7-0.3,1.4-0.6,2.1-0.8c1.2-0.4,2.4-0.6,3.3-0.8c1.2-0.2,2-0.3,2-0.3
					c-0.1-5.5,1.5-7.7,1.5-7.7c2.4,0.8,4.7,6.4,5.6,6.4c0.7,0,1.8-2,10.2-8.1c0.6-0.4,1.2-0.9,1.9-1.3c1.6-1.1,3.5-2.4,5.6-3.8
					c0.3-0.2,0.6-0.4,0.9-0.6c0.5-0.3,0.9-0.6,1.4-0.9c1.8-1.2,3.7-2.3,5.6-3.4c0.9-0.5,1.7-1,2.6-1.4c2.1-1.1,4.3-2.2,6.5-3.2
					c1.3-0.6,2.6-1.1,3.9-1.6c1.8-0.7,3.5-1.3,5.3-1.9c2.1-0.6,4.2-1.2,6.3-1.6c3.2-0.6,6.3-1,9.5-1c2.1,0,4.2,0.1,6.3,0.4
					c2.9,0.4,5.8,1,8.7,2.1c6.1,2.2,11,6.6,14.4,12c0.9,1.4,1.7,2.9,2.4,4.5C272.6,176.2,272.6,189.3,267.7,196.7z"/>
				<path id="XMLID_250_" class="st8" d="M278.3,198.6c0,14.1-13.5,19.9-31.6,23.3c-15.8,3-23.2,0.8-24.1-3.2
					c-0.1-0.6-0.1-1.2,0-1.8c1-5.2,20-2.6,32-4s18.1-5.7,18.9-14.3s-2.2-14.4-2.2-14.4l-0.1-5.9v-0.6
					C271.1,177.5,278.3,184.5,278.3,198.6z"/>
				<path id="XMLID_271_" class="st7" d="M275.5,195.4c0,14.1-13.7,20.7-31.8,24.1c-10.6,2-20.4,2-21.2-0.9c-0.1-0.6-0.1-1.2,0-1.8
					c1-5.2,20-2.6,32-4s18.1-5.7,18.9-14.3s-2.2-14.4-2.2-14.4l-0.1-5.9c0.2,0.3,0.4,0.7,0.6,1.1
					C273.6,182.7,275.5,188.1,275.5,195.4z"/>
				<path id="XMLID_263_" class="st7" d="M276.6,198.6c0,14.1-13.4,17.5-31.5,20.9c-10.6,2-18.5,0.9-22.1-0.7c0-0.4,0-0.8,0.1-1.2
					c1-5.2,20-2.6,32-4s18.1-5.7,18.9-14.3s-2.6-15.6-2.6-15.6l-0.2-6.2C275.6,182.1,276.6,191.1,276.6,198.6z"/>
				<g id="XMLID_20_">
					<path id="XMLID_254_" class="st8" d="M192.9,175.4c-2-5-4.7-7.9-6.8-9.5c0.6-0.4,1.2-0.9,1.9-1.3
						C191.8,169.1,192.9,175.4,192.9,175.4z"/>
					<path id="XMLID_252_" class="st8" d="M201.4,171.9c-2.3-5.8-5.3-9.2-7.8-11.2c0.3-0.2,0.6-0.4,0.9-0.6c0.5-0.3,0.9-0.6,1.4-0.9
						C200.2,164.7,201.4,171.9,201.4,171.9z"/>
					<path id="XMLID_251_" class="st8" d="M210.1,167.7c-2.6-6.5-6.1-10-8.7-11.8c0.9-0.5,1.7-1,2.6-1.4
						C208.9,159.9,210.1,167.7,210.1,167.7z"/>
					<path id="XMLID_249_" class="st8" d="M222.5,166.7c-3.6-9.1-8.7-13.5-12-15.5c1.3-0.6,2.6-1.1,3.9-1.6
						C220.7,156.4,222.5,166.4,222.5,166.7z"/>
					<path id="XMLID_248_" class="st8" d="M237,168.9c-5.3-13.4-13-18.9-17.2-21.1c2.1-0.6,4.2-1.2,6.3-1.6
						C234.6,155,236.9,168.4,237,168.9z"/>
					<path id="XMLID_242_" class="st8" d="M247.2,168.1c-2.4-12.7-7.8-19.6-11.7-23c2.1,0,4.2,0.1,6.3,0.4
						C247.6,155.7,247.2,168.1,247.2,168.1z"/>
				</g>
				<path id="XMLID_253_" class="st8" d="M182.7,208.2c-16.4-0.4-28.6-4.9-31.9-8.8l1.8-1.7c0,0,0,0.9,2.4,1.4
					c2.3,0.5,0-4.7,1.4-6.5c1.3-1.9,4.3-3.2,7.1-0.6c2.8,2.6,3.3,13,18.7,12L182.7,208.2z"/>
				<path id="XMLID_241_" class="st8" d="M267.7,196.7c-0.4,0.7-0.9,1.3-1.4,1.9c-9,10.5-27.6,7.5-34.2,8.1
					c-0.8,0.1-2.1,0.2-3.7,0.2c-0.3,0-0.7,0-1,0c-1.6,0.1-3.5,0.1-5.6,0.2c-10.3,0.4-24.9,0.7-32.9,0.9c-3.4,0.1-5.6,0.1-5.6,0.1
					c-0.1,0-0.2,0-0.3,0s-0.2,0-0.3,0c-8.9-0.2-16.5-1.6-22.2-3.5c1.9,0.2,12.6,1.1,20.4,0.6c8.6-0.6,29.4-19.4,45-16.2
					s49-8,39.4-28.7c-0.1-0.3-0.3-0.6-0.4-0.9C272.4,171.4,273.4,188,267.7,196.7z"/>
				<path id="XMLID_243_" class="st8" d="M223,207.3c-14.7,0.5-38.4,1-38.4,1c-0.1,0-0.2,0-0.3,0c-3.8-2.9-3.7-9,0.7-11.7
					c2.7-1.6,6.3-3,10.7-2.6c10,0.8,11.7,9.1,20.4,10.9C219.8,205.6,221.9,206.5,223,207.3z"/>
				<path id="XMLID_245_" class="st8" d="M227.3,207c-1.6,0.1-3.5,0.1-5.6,0.2c-10.3,0.4-24.9,0.7-32.9,0.9
					c-4.7-2.6-4.8-9.4-0.1-12.2c2.7-1.6,6.3-3,10.7-2.6c10,0.8,11.7,9.1,20.4,10.9C224.3,205.1,226.4,206.1,227.3,207z"/>
				<path id="XMLID_269_" class="st6" d="M225.7,209.4c0,0.3-0.2,0.6-0.7,0.9c-1.2,0.6-3.8,1.1-7.2,1.2c-2.3,0.1-4.9,0.1-7.7-0.1
					c-6-0.3-16.6-0.1-23.2-3.3c-3.8-1.8-4.9-6.1-3.3-9.5c0.6-1.2,1.5-2.2,2.7-3c2.7-1.6,6.3-3,10.7-2.6c10,0.8,11.7,9.1,20.4,10.9
					c0.3,0.1,0.5,0.1,0.8,0.2C226,205.9,225.6,207.9,225.7,209.4z"/>
				<path id="XMLID_267_" class="st7" d="M225,210.3c-0.1,0-0.2,0.1-0.2,0.1c-0.1,0-0.2,0.1-0.3,0.1c-0.1,0.1-0.3,0.1-0.5,0.2
					c-0.1,0-0.2,0.1-0.4,0.1c-0.3,0.1-0.5,0.1-0.9,0.2c-0.1,0-0.2,0-0.3,0.1c-0.7,0.1-1.5,0.2-2.4,0.3c-0.3,0-0.7,0.1-1,0.1
					c-0.2,0-0.4,0-0.7,0c-0.2,0-0.4,0-0.6,0c-2.3,0.1-4.9,0.1-7.7-0.1c-6-0.3-16.6-0.1-23.2-3.3c-3.8-1.8-4.9-6.1-3.3-9.5
					c0.5-0.7,1.2-1.3,2-1.8c2.7-1.6,6.3-3,10.7-2.6c10,0.8,11.7,9.1,20.4,10.9c0.3,0.1,0.5,0.1,0.8,0.2c0.4,0.1,0.9,0.2,1.2,0.3
					C224.8,207.2,224.9,208.9,225,210.3z"/>
				<path id="XMLID_244_" class="st8" d="M268.2,182.9c0,6.4-0.7,11.7-1.9,15.8c-9,10.5-27.6,7.5-34.2,8.1c-0.8,0.1-2.1,0.2-3.7,0.2
					c0-0.8,0.3-1.7,0.7-2.3c1.1-2.1,12.7-2.5,12-4.1s-5.9-2.4-5.9-12.8c0-0.2,0-0.4,0-0.6c0.3-7.9,6.5-14.4,14.4-15.2
					C257,171.2,268.2,171.9,268.2,182.9z"/>
				<path id="XMLID_305_" class="st6" d="M271.4,182.9c0,0.4,0,0.9,0,1.3c0,0.4,0,0.8,0,1.3c-0.6,12.5-5.6,20.3-9.8,23.1
					c-0.4,0.3-0.8,0.5-1.2,0.7c-0.1,0-0.2,0.1-0.3,0.1c-0.2,0.1-0.3,0.1-0.5,0.2c-0.2,0-0.3,0.1-0.5,0.1c0,0,0,0-0.1,0
					c-1.3,0.3-2.8,0.5-4.3,0.6h-0.1c-4.9,0.5-10.6,0.4-16.4,0.4c-1.6,0-2.8-0.2-3.7-0.4c-3.7-1.1-3.6-3.3-2.1-5.5s12.7-2.5,12-4.1
					s-5.9-2.4-5.9-12.8c0-0.2,0-0.4,0-0.6c0.2-7.9,6.5-14.4,14.4-15.2c3.8-0.4,8.5-0.4,12.2,1.1l0,0c1,0.4,1.9,0.9,2.7,1.5
					c0.2,0.2,0.4,0.4,0.6,0.5c0.2,0.2,0.3,0.3,0.5,0.5s0.3,0.3,0.5,0.5c0.1,0.2,0.3,0.3,0.4,0.5c0,0,0,0.1,0.1,0.1
					c0.1,0.1,0.2,0.3,0.3,0.4c0.2,0.3,0.3,0.6,0.5,0.9c0.1,0.2,0.2,0.4,0.2,0.6c0,0,0,0,0,0.1c0.1,0.2,0.2,0.5,0.2,0.7
					c0.1,0.3,0.1,0.5,0.2,0.8l0,0c0,0.2,0.1,0.3,0.1,0.5s0,0.3,0.1,0.5C271.3,181.8,271.4,182.3,271.4,182.9z"/>
				<path id="XMLID_295_" class="st7" d="M271.4,182.9c0,0.4,0,0.9,0,1.3c0,0.4,0,0.8,0,1.3c-0.6,12.5-5.6,20.3-9.8,23.1
					c-0.4,0.3-0.8,0.5-1.2,0.7c-0.1,0-0.2,0.1-0.3,0.1c-0.2,0.1-0.3,0.1-0.5,0.2c-0.2,0-0.3,0.1-0.5,0.1c0,0,0,0-0.1,0
					c-0.3,0.1,1,0,0.4,0.1c-1.4,0.2-3,0.4-4.7,0.5h-0.1c-5.1,0.4-11.2,0.4-16.4,0.4c-1.6,0-2.8-0.2-3.7-0.4c-2.6-1.2-2-3.7-1.2-5.2
					c1.1-2,12.7-2.5,12-4.1s-5.9-2.4-5.9-12.8c0-0.2,0-0.4,0-0.6c0.2-7.9,6.5-14.4,14.4-15.2c3.5-0.3,7.7-0.4,11.3,0.8l0,0
					c1,0.4,1.9,0.9,2.7,1.5c0.2,0.2,0.4,0.4,0.6,0.5c0.2,0.2,0.3,0.3,0.5,0.5s0.3,0.3,0.5,0.5c0.1,0.2,0.3,0.3,0.4,0.5
					c0,0,0,0.1,0.1,0.1c0.1,0.1,0.2,0.3,0.3,0.4c0.2,0.3,0.3,0.6,0.5,0.9c0.1,0.2,0.2,0.4,0.2,0.6c0,0,0,0,0,0.1
					c0.1,0.2,0.2,0.5,0.2,0.7c0.1,0.3,0.1,0.5,0.2,0.8l0,0c0,0.2,0.1,0.3,0.1,0.5s0,0.3,0.1,0.5
					C271.3,181.8,271.4,182.3,271.4,182.9z"/>
				<path id="XMLID_255_" class="st8" d="M152.3,200.9c-0.6-0.5-1.2-0.9-1.5-1.4c-0.2-0.3-0.4-0.5-0.5-0.8c-2.2-4,2.2-11.2,2.4-11.6
					c-0.1,0.4-2.8,7.2-0.1,10.7C153.4,198.8,153.1,199.9,152.3,200.9z"/>
				<path id="XMLID_28_" class="st8" d="M153.3,185.2c0,0-1.1-5.2-0.7-7.9c0,0,2.3,0.4,3.9,3.2C156.5,180.6,153.7,183.9,153.3,185.2
					z"/>
				<path id="XMLID_238_" class="st8" d="M170.9,169.1c0,0-1.2,4.1-0.9,6.4c0,0,3.3-0.7,4.9-0.6
					C174.9,174.9,172.9,170.8,170.9,169.1z"/>
				<g id="XMLID_69_">
					<g id="XMLID_235_">
						<g id="XMLID_145_">
							<path id="XMLID_284_" class="st9" d="M152.6,193c0,0,0-0.4,0.2-0.9c0.1-0.1,0.1-0.3,0.2-0.4c0.1-0.1,0.2-0.3,0.3-0.4
								c0.1-0.1,0.2-0.3,0.4-0.4c0.1-0.1,0.3-0.2,0.4-0.3c0.2-0.1,0.3-0.2,0.5-0.3s0.4-0.1,0.5-0.1c0.2,0,0.3,0,0.5,0
								c0.1,0,0.2,0,0.2,0c0.1,0,0.1,0,0.2,0c0.1,0,0.3,0.1,0.4,0.1c0.1,0,0.2,0.1,0.3,0.1c0.1,0.1,0.2,0.1,0.2,0.1s-0.1,0-0.2,0
								c-0.1,0-0.2,0-0.3,0s-0.2,0-0.3,0s-0.2,0-0.4,0.1c-0.1,0-0.3,0.1-0.4,0.1c-0.1,0-0.1,0-0.2,0.1c-0.1,0-0.1,0.1-0.2,0.1
								c-0.1,0.1-0.3,0.1-0.4,0.2c-0.1,0.1-0.2,0.2-0.4,0.3c-0.1,0.1-0.2,0.2-0.3,0.3s-0.2,0.2-0.3,0.3s-0.2,0.2-0.3,0.3
								C152.8,192.7,152.6,193,152.6,193z"/>
						</g>
						<g id="XMLID_146_">
							<path id="XMLID_282_" class="st9" d="M161.1,189.4c0,0,0.1-0.1,0.2-0.2c0.1-0.1,0.1-0.2,0.3-0.2c0.1-0.1,0.2-0.2,0.4-0.3
								c0.1-0.1,0.3-0.2,0.5-0.2c0.2-0.1,0.4-0.1,0.6-0.2c0.2-0.1,0.4-0.1,0.7-0.1c0.2,0,0.5,0,0.7,0.1s0.5,0.1,0.7,0.2
								c0.2,0.1,0.4,0.1,0.6,0.3c0.2,0.1,0.4,0.2,0.5,0.3c0.2,0.1,0.3,0.2,0.4,0.3c0.1,0.1,0.2,0.2,0.3,0.3s0.2,0.2,0.2,0.3
								c0.1,0.1,0.2,0.2,0.2,0.2s-0.1,0-0.3-0.1s-0.4-0.2-0.7-0.3c-0.1-0.1-0.3-0.1-0.5-0.2c-0.2-0.1-0.3-0.1-0.5-0.2
								c-0.2-0.1-0.4-0.1-0.6-0.2c-0.2-0.1-0.4-0.1-0.6-0.1c-0.2,0-0.4,0-0.6-0.1c-0.2,0-0.4,0-0.6,0c-0.2,0-0.4,0-0.5,0.1
								c-0.2,0-0.3,0.1-0.5,0.1C161.5,189.2,161.1,189.4,161.1,189.4z"/>
						</g>
						<g id="XMLID_158_">
							<path id="XMLID_280_" class="st9" d="M157.9,192.8c-0.3,0.2-0.3,0.6-0.1,0.9c0.4,0.6,1.3,1.4,1.9,1.3c0.6-0.2,0.8-2,0.6-2.5
								C160,192.1,158.8,192,157.9,192.8z"/>
						</g>
						<g id="XMLID_161_">
							
								<rect id="XMLID_236_" x="159.8" y="194.5" transform="matrix(0.9189 -0.3944 0.3944 0.9189 -64.2268 78.9744)" class="st9" width="0.4" height="2.5"/>
						</g>
						<g id="XMLID_139_">
							<path id="XMLID_276_" class="st9" d="M157.7,196.1c0,0,0.3,0.3,0.8,0.6c0.3,0.1,0.6,0.3,1,0.4c0.2,0,0.4,0.1,0.6,0
								c0,0,0,0,0.1,0h0.1h0.1c0.1-0.1,0.2-0.1,0.3-0.2c0.2-0.1,0.3-0.3,0.4-0.4c0.1-0.2,0.2-0.3,0.3-0.5c0.2-0.3,0.4-0.6,0.5-0.9
								c0.2-0.5,0.3-0.9,0.3-0.9s-0.1,0.1-0.1,0.2c-0.1,0.1-0.2,0.3-0.4,0.6c-0.2,0.2-0.3,0.5-0.6,0.8c-0.1,0.1-0.2,0.3-0.3,0.4
								c-0.1,0.1-0.2,0.3-0.4,0.4c-0.1,0.1-0.1,0.1-0.2,0.1h-0.1H160l0,0c-0.2,0-0.3,0-0.5,0c-0.3,0-0.7-0.1-0.9-0.2
								c-0.3-0.1-0.5-0.2-0.6-0.3C157.8,196.1,157.7,196.1,157.7,196.1z"/>
						</g>
					</g>
				</g>
			</g>
			<path id="XMLID_274_" class="st10" d="M235.4,149.1l-1.8,51.4c0,0-9.9,5.6-11.5,4.9c-1.6-0.7-6.2-1.6-6.2-1.6s23.6-50.2-7.7-51.5
				c0.7-0.3,1.4-0.7,2.1-1c1.3-0.6,2.6-1.1,3.9-1.6c1.8-0.7,3.5-1.3,5.3-1.9c1.9-0.6,3.9-1.1,5.9-1.5l0,0c4.9-0.7,8.7-1.1,9.4-1.1
				L235.4,149.1z"/>
			<path id="XMLID_272_" class="st3" d="M267.7,141.5c-12.7-0.1-25.5-0.6-38.2,0.2c0.6,5.7,0.9,12.2,0.9,19.6
				c0,21.5-2.8,36.4-8.1,44c0,0,0.8,0.3,2.1,1.1c0.2,0.1,0.8,0.7,0.8,0.7s0.7,1.2,0.6,2.4c0.9,0.4,1.6,4.4,1.6,4.4s3.4-0.5,3.9-0.4
				c4.6-0.3,9.6-0.2,13.7-0.3c4.8-0.2,8.7-0.3,13.1-0.9c6.4-12.5,10.9-31.2,10.9-51C268.9,154.3,268.5,147.6,267.7,141.5z"/>
			<g id="XMLID_237_">
				<g id="XMLID_261_">
					<path id="XMLID_262_" class="st9" d="M151.2,164.4l0.5,1.2l-1.4,4.5l3-1.3l0.7,1.5l-5.4,2.4l-0.5-1.2l1.4-4.5l-2.8,1.2
						l-0.7-1.5L151.2,164.4z"/>
				</g>
				<g id="XMLID_258_">
					<path id="XMLID_266_" class="st9" d="M159.4,149.6l0.1,1.3l-2.7,3.9l3.2-0.3l0.2,1.6l-5.9,0.6l-0.1-1.3l2.7-3.9l-3,0.3
						l-0.2-1.6L159.4,149.6z"/>
				</g>
				<g id="XMLID_279_" class="st11">
					<path id="XMLID_281_" class="st9" d="M149.3,135.9l0.1,1l-2.1,2.9l2.5-0.3l0.1,1.2l-4.5,0.5l-0.1-1l2.1-2.9l-2.3,0.2l-0.1-1.2
						L149.3,135.9z"/>
				</g>
				<g id="XMLID_288_" class="st12">
					<path id="XMLID_290_" class="st9" d="M160.9,122.7l-0.2,0.7l-2.2,1.5l1.8,0.4l-0.2,0.9l-3.3-0.8l0.2-0.7l2.2-1.5l-1.7-0.4
						l0.2-0.9L160.9,122.7z"/>
				</g>
				<g id="XMLID_292_" class="st13">
					<path id="XMLID_297_" class="st9" d="M148.4,115.8l0.2,0.7l-1,2.5l1.7-0.6l0.3,0.9l-3.2,1.1l-0.2-0.7l1-2.5l-1.6,0.5l-0.3-0.9
						L148.4,115.8z"/>
				</g>
			</g>
		</g>
	</g>
</g>
<g id="DESIGNED_BY_FREEPIK">
</g>
</svg>
