<svg width="30" height="30" viewBox="0 0 30 30" fill="none" xmlns="http://www.w3.org/2000/svg">
<g clip-path="url(#clip0_1718_14607)">
<rect width="29.1343" height="29.1343" transform="translate(0.152344 0.716797)" fill="black"/>
<path d="M25.9859 23.0827C25.5637 24.0581 25.0639 24.956 24.4848 25.7816C23.6955 26.907 23.0492 27.6859 22.5512 28.1185C21.7791 28.8286 20.9518 29.1922 20.066 29.2129C19.43 29.2129 18.6631 29.0319 17.7704 28.6649C16.8747 28.2995 16.0516 28.1185 15.299 28.1185C14.5096 28.1185 13.6631 28.2995 12.7576 28.6649C11.8507 29.0319 11.1202 29.2232 10.5616 29.2422C9.71212 29.2784 8.86541 28.9044 8.02024 28.1185C7.4808 27.648 6.80608 26.8415 5.99779 25.6988C5.13056 24.4786 4.41758 23.0637 3.85902 21.4506C3.26081 19.7082 2.96094 18.021 2.96094 16.3875C2.96094 14.5164 3.36525 12.9026 4.17509 11.5502C4.81156 10.4639 5.65828 9.60702 6.71801 8.97796C7.77775 8.34891 8.9228 8.02836 10.1559 8.00785C10.8306 8.00785 11.7154 8.21655 12.815 8.62673C13.9114 9.03828 14.6155 9.24699 14.9241 9.24699C15.1549 9.24699 15.937 9.00295 17.2628 8.51643C18.5166 8.06524 19.5748 7.87842 20.4417 7.95201C22.7907 8.14158 24.5555 9.06758 25.7292 10.7359C23.6283 12.0088 22.5891 13.7917 22.6098 16.0788C22.6287 17.8603 23.275 19.3428 24.5452 20.5199C25.1208 21.0663 25.7636 21.4885 26.4788 21.7884C26.3237 22.2382 26.16 22.669 25.9859 23.0827ZM20.5985 1.88279C20.5985 3.27912 20.0884 4.58288 19.0716 5.78962C17.8445 7.2242 16.3603 8.05317 14.7507 7.92236C14.7302 7.75485 14.7183 7.57854 14.7183 7.39327C14.7183 6.05279 15.3019 4.61821 16.3382 3.44524C16.8556 2.85135 17.5136 2.35754 18.3115 1.96361C19.1077 1.57557 19.8609 1.36097 20.5692 1.32422C20.5899 1.51089 20.5985 1.69757 20.5985 1.88277V1.88279Z" fill="white"/>
</g>
<defs>
<clipPath id="clip0_1718_14607">
<rect width="29.1343" height="29.1343" fill="white" transform="translate(0.152344 0.716797)"/>
</clipPath>
</defs>
</svg>
