<svg width="72" height="72" viewBox="0 0 72 72" fill="none" xmlns="http://www.w3.org/2000/svg">
<path fill-rule="evenodd" clip-rule="evenodd" d="M13.5 11.25C12.2574 11.25 11.25 12.2574 11.25 13.5C11.25 14.7426 12.2574 15.75 13.5 15.75H18.8294L21.301 20.9398L24.3254 38.2631C20.7953 38.4822 18 41.4147 18 45C18 47.3901 19.2422 49.49 21.1162 50.6894C20.5647 51.6676 20.25 52.797 20.25 54C20.25 57.7279 23.2721 60.75 27 60.75C30.7279 60.75 33.75 57.7279 33.75 54C33.75 53.2111 33.6147 52.4538 33.3659 51.75H45.3841C45.1353 52.4538 45 53.2111 45 54C45 57.7279 48.0221 60.75 51.75 60.75C55.4779 60.75 58.5 57.7279 58.5 54C58.5 50.2721 55.4779 47.25 51.75 47.25H24.75C23.5074 47.25 22.5 46.2426 22.5 45C22.5 43.7574 23.5074 42.75 24.75 42.75H26.9683C27.0672 42.7513 27.1673 42.7461 27.2681 42.734L55.3931 39.359C56.3587 39.2431 57.1406 38.5199 57.3313 37.5663L60.7063 20.6913C60.8385 20.0303 60.6674 19.3448 60.24 18.8235C59.8127 18.3022 59.1741 18 58.5 18H24.8852L22.2814 12.5326C21.9083 11.7491 21.1178 11.25 20.25 11.25H13.5ZM51.75 51.75C50.5074 51.75 49.5 52.7574 49.5 54C49.5 55.2426 50.5074 56.25 51.75 56.25C52.9926 56.25 54 55.2426 54 54C54 52.7574 52.9926 51.75 51.75 51.75ZM24.75 54C24.75 52.7574 25.7574 51.75 27 51.75C28.2426 51.75 29.25 52.7574 29.25 54C29.25 55.2426 28.2426 56.25 27 56.25C25.7574 56.25 24.75 55.2426 24.75 54ZM28.8496 38.0119L26.1415 22.5H55.7554L53.2384 35.0853L28.8496 38.0119Z" fill="url(#paint0_linear_756_10155)"/>
<defs>
<linearGradient id="paint0_linear_756_10155" x1="60.9476" y1="11.1143" x2="-11.1334" y2="71.1011" gradientUnits="userSpaceOnUse">
<stop stop-color="#A0D800"/>
<stop offset="1" stop-color="#BBF613"/>
</linearGradient>
</defs>
</svg>
