<svg width="30" height="30" viewBox="0 0 30 30" fill="none" xmlns="http://www.w3.org/2000/svg">
<rect width="29.1343" height="29.1343" transform="translate(0.152344 0.478027)" fill="#1877F2"/>
<path d="M27.272 15.2947C27.272 8.45625 21.7283 2.91261 14.8899 2.91261C8.05146 2.91261 2.50781 8.45625 2.50781 15.2947C2.50781 21.475 7.03576 26.5975 12.9552 27.5264V18.8739H9.81131V15.2947H12.9552V12.5668C12.9552 9.46351 14.8038 7.74936 17.6321 7.74936C18.9868 7.74936 20.4038 7.9912 20.4038 7.9912V11.0384H18.8424C17.3043 11.0384 16.8246 11.9928 16.8246 12.972V15.2947H20.2587L19.7097 18.8739H16.8246V27.5264C22.744 26.5975 27.272 21.475 27.272 15.2947Z" fill="white"/>
</svg>
