<svg width="30" height="30" viewBox="0 0 30 30" fill="none" xmlns="http://www.w3.org/2000/svg">
<path fill-rule="evenodd" clip-rule="evenodd" d="M28.7032 15.4953C28.7032 14.4623 28.6105 13.4691 28.4384 12.5156H14.7188V18.1505H22.5585C22.2208 19.9714 21.1945 21.5142 19.6517 22.5471V26.2021H24.3596C27.1141 23.6661 28.7032 19.9316 28.7032 15.4953Z" fill="#4285F4"/>
<path fill-rule="evenodd" clip-rule="evenodd" d="M14.7209 29.7315C18.654 29.7315 21.9515 28.4271 24.3617 26.2023L19.6538 22.5473C18.3494 23.4213 16.6808 23.9378 14.7209 23.9378C10.9268 23.9378 7.71539 21.3753 6.56988 17.9321H1.70312V21.7063C4.10009 26.4672 9.02644 29.7315 14.7209 29.7315Z" fill="#34A853"/>
<path fill-rule="evenodd" clip-rule="evenodd" d="M6.56852 17.9318C6.27717 17.0578 6.11164 16.1242 6.11164 15.1641C6.11164 14.2039 6.27717 13.2703 6.56852 12.3963V8.62207H1.70176C0.715166 10.5886 0.152344 12.8134 0.152344 15.1641C0.152344 17.5147 0.715166 19.7395 1.70176 21.706L6.56852 17.9318Z" fill="#FBBC05"/>
<path fill-rule="evenodd" clip-rule="evenodd" d="M14.7209 6.39093C16.8596 6.39093 18.7798 7.12591 20.2895 8.56938L24.4676 4.39125C21.9449 2.04064 18.6474 0.597168 14.7209 0.597168C9.02644 0.597168 4.10009 3.86154 1.70312 8.62235L6.56988 12.3966C7.71539 8.95342 10.9268 6.39093 14.7209 6.39093Z" fill="#EA4335"/>
</svg>
