<svg width="23" height="23" viewBox="0 0 23 23" fill="none" xmlns="http://www.w3.org/2000/svg">
<path d="M15.1414 3.58287C14.9961 4.12489 15.3178 4.68203 15.8598 4.82726C16.4018 4.9725 16.959 4.65083 17.1042 4.10881L17.6302 2.14597C17.7754 1.60394 17.4537 1.04681 16.9117 0.901572C16.3697 0.756337 15.8125 1.078 15.6673 1.62002L15.1414 3.58287Z" fill="url(#paint0_linear_584_9003)"/>
<path fill-rule="evenodd" clip-rule="evenodd" d="M13.4646 3.43972C13.3178 3.16244 13.0511 2.96853 12.7421 2.91434C12.4331 2.86015 12.1163 2.95176 11.884 3.16254L5.81835 8.66445L2.39279 10.6422C0.935482 11.4836 0.434508 13.3466 1.27657 14.8051L2.29295 16.5655C3.13433 18.0229 4.99792 18.5239 6.45639 17.6819L6.48784 17.6637L10.4755 22.5847C10.7901 22.9729 11.3402 23.0748 11.7729 22.8249L16.1725 20.2848C16.4497 20.1248 16.6353 19.8435 16.6734 19.5257C16.7114 19.2079 16.5975 18.8907 16.3659 18.6698L12.435 14.9197L17.412 13.5301C17.7082 13.4474 17.951 13.2351 18.0723 12.9526C18.1937 12.6701 18.1806 12.3478 18.0368 12.0761L13.4646 3.43972ZM3.40883 12.402L6.04858 10.878L8.08067 14.3976L5.44035 15.922C4.95496 16.2023 4.33369 16.036 4.05279 15.5495L3.03641 13.7891C2.75618 13.3037 2.92227 12.683 3.40883 12.402ZM8.26971 16.635L9.89729 15.6953L10.1931 15.5894L13.9814 19.2034L11.5082 20.6314L8.26971 16.635ZM10.0985 13.4649L9.92455 13.5272L7.71025 9.69189L12.2805 5.54634L15.6507 11.9121L10.1677 13.4429C10.1444 13.4494 10.1213 13.4567 10.0985 13.4649Z" fill="url(#paint1_linear_584_9003)"/>
<path d="M21.5381 6.04049C22.0241 5.75992 22.1906 5.13851 21.91 4.65255C21.6294 4.16658 21.008 4.00008 20.5221 4.28065L18.0333 5.71755C17.5473 5.99812 17.3808 6.61953 17.6614 7.10549C17.9419 7.59146 18.5633 7.75796 19.0493 7.47739L21.5381 6.04049Z" fill="url(#paint2_linear_584_9003)"/>
<path d="M18.7685 9.54191C18.9137 8.99989 19.4708 8.67823 20.0129 8.82346L21.9757 9.34941C22.5177 9.49464 22.8394 10.0518 22.6942 10.5938C22.5489 11.1358 21.9918 11.4575 21.4498 11.3123L19.4869 10.7863C18.9449 10.6411 18.6232 10.0839 18.7685 9.54191Z" fill="url(#paint3_linear_584_9003)"/>
<defs>
<linearGradient id="paint0_linear_584_9003" x1="11.7984" y1="0.866699" x2="11.7984" y2="22.9611" gradientUnits="userSpaceOnUse">
<stop stop-color="#40DDFF"/>
<stop offset="1" stop-color="#13B1E6"/>
</linearGradient>
<linearGradient id="paint1_linear_584_9003" x1="11.7984" y1="0.866699" x2="11.7984" y2="22.9611" gradientUnits="userSpaceOnUse">
<stop stop-color="#40DDFF"/>
<stop offset="1" stop-color="#13B1E6"/>
</linearGradient>
<linearGradient id="paint2_linear_584_9003" x1="11.7984" y1="0.866699" x2="11.7984" y2="22.9611" gradientUnits="userSpaceOnUse">
<stop stop-color="#40DDFF"/>
<stop offset="1" stop-color="#13B1E6"/>
</linearGradient>
<linearGradient id="paint3_linear_584_9003" x1="11.7984" y1="0.866699" x2="11.7984" y2="22.9611" gradientUnits="userSpaceOnUse">
<stop stop-color="#40DDFF"/>
<stop offset="1" stop-color="#13B1E6"/>
</linearGradient>
</defs>
</svg>
