<svg width="25" height="16" viewBox="0 0 25 16" fill="none" xmlns="http://www.w3.org/2000/svg">
<path fill-rule="evenodd" clip-rule="evenodd" d="M3.57471 12.1047C3.03711 12.1047 2.6013 12.5296 2.6013 13.0538C2.6013 13.5779 3.03711 14.0029 3.57471 14.0029C4.11231 14.0029 4.54812 13.5779 4.54812 13.0538C4.54812 12.5296 4.11231 12.1047 3.57471 12.1047ZM0.65448 13.0538C0.65448 11.4813 1.96191 10.2066 3.57471 10.2066C5.18751 10.2066 6.49494 11.4813 6.49494 13.0538C6.49494 14.6263 5.18751 15.901 3.57471 15.901C1.96191 15.901 0.65448 14.6263 0.65448 13.0538Z" fill="#33D1F8"/>
<path fill-rule="evenodd" clip-rule="evenodd" d="M9.41516 3.56304C8.87757 3.56304 8.44175 3.98796 8.44175 4.51212C8.44175 5.03628 8.87757 5.46119 9.41516 5.46119C9.95276 5.46119 10.3886 5.03628 10.3886 4.51212C10.3886 3.98796 9.95276 3.56304 9.41516 3.56304ZM6.49494 4.51212C6.49494 2.93964 7.80237 1.66489 9.41516 1.66489C11.028 1.66489 12.3354 2.93964 12.3354 4.51212C12.3354 6.08459 11.028 7.35934 9.41516 7.35934C7.80237 7.35934 6.49494 6.08459 6.49494 4.51212Z" fill="#33D1F8"/>
<path fill-rule="evenodd" clip-rule="evenodd" d="M15.2556 10.2066C14.718 10.2066 14.2822 10.6315 14.2822 11.1556C14.2822 11.6798 14.718 12.1047 15.2556 12.1047C15.7932 12.1047 16.229 11.6798 16.229 11.1556C16.229 10.6315 15.7932 10.2066 15.2556 10.2066ZM12.3354 11.1556C12.3354 9.58316 13.6428 8.30841 15.2556 8.30841C16.8684 8.30841 18.1758 9.58316 18.1758 11.1556C18.1758 12.7281 16.8684 14.0029 15.2556 14.0029C13.6428 14.0029 12.3354 12.7281 12.3354 11.1556Z" fill="#33D1F8"/>
<path fill-rule="evenodd" clip-rule="evenodd" d="M21.0961 2.61397C20.5585 2.61397 20.1227 3.03888 20.1227 3.56304C20.1227 4.0872 20.5585 4.51212 21.0961 4.51212C21.6337 4.51212 22.0695 4.0872 22.0695 3.56304C22.0695 3.03888 21.6337 2.61397 21.0961 2.61397ZM18.1758 3.56304C18.1758 1.99057 19.4833 0.71582 21.0961 0.71582C22.7089 0.71582 24.0163 1.99057 24.0163 3.56304C24.0163 5.13552 22.7089 6.41026 21.0961 6.41026C19.4833 6.41026 18.1758 5.13552 18.1758 3.56304Z" fill="#33D1F8"/>
<path fill-rule="evenodd" clip-rule="evenodd" d="M9.28691 5.93206L5.39327 12.5756L3.70296 11.6338L7.5966 4.99032L9.28691 5.93206Z" fill="#33D1F8"/>
<path fill-rule="evenodd" clip-rule="evenodd" d="M11.1487 4.86831L15.0423 9.61368L13.5221 10.7994L9.62847 6.05407L11.1487 4.86831Z" fill="#33D1F8"/>
<path fill-rule="evenodd" clip-rule="evenodd" d="M20.9326 5.03857L17.039 10.733L15.4191 9.68011L19.3127 3.98566L20.9326 5.03857Z" fill="#33D1F8"/>
</svg>
