<svg width="23" height="15" viewBox="0 0 23 15" fill="none" xmlns="http://www.w3.org/2000/svg">
<path fill-rule="evenodd" clip-rule="evenodd" d="M16.5118 2.29663C15.9476 2.29663 15.4902 1.83924 15.4902 1.27502C15.4902 0.710806 15.9476 0.253418 16.5118 0.253418H21.6198C22.1841 0.253418 22.6414 0.710806 22.6414 1.27502V6.38305C22.6414 6.94726 22.1841 7.40465 21.6198 7.40465C21.0556 7.40465 20.5982 6.94726 20.5982 6.38305V3.7414L13.1478 11.1919C12.7488 11.5908 12.102 11.5908 11.703 11.1919L8.33898 7.82782L1.91013 14.2567C1.51117 14.6556 0.86432 14.6556 0.465359 14.2567C0.0663973 13.8577 0.0663973 13.2109 0.465359 12.8119L7.61659 5.66066C8.01556 5.2617 8.6624 5.2617 9.06136 5.66066L12.4254 9.0247L19.1535 2.29663H16.5118Z" fill="url(#paint0_linear_584_8993)"/>
<defs>
<linearGradient id="paint0_linear_584_8993" x1="11.4038" y1="0.253418" x2="11.4038" y2="14.5559" gradientUnits="userSpaceOnUse">
<stop stop-color="#40DDFF"/>
<stop offset="1" stop-color="#13B1E6"/>
</linearGradient>
</defs>
</svg>
