<svg width="21" height="25" viewBox="0 0 21 25" fill="none" xmlns="http://www.w3.org/2000/svg">
<path d="M19.3765 8.32458C18.518 8.84934 17.8201 9.59887 17.3587 10.4917C16.8972 11.3846 16.6899 12.3865 16.7591 13.3888C16.8284 14.391 17.1716 15.3551 17.7515 16.1762C18.3315 16.9974 19.1258 17.6442 20.0484 18.0464C19.9499 18.3237 19.8584 18.6116 19.7476 18.8924C19.1179 20.4418 18.2346 21.876 17.1339 23.1364C16.6683 23.8215 15.9588 24.3039 15.1496 24.4858C14.3404 24.6678 13.4921 24.5354 12.7771 24.1158C12.0659 23.7656 11.2836 23.5835 10.4906 23.5835C9.69753 23.5835 8.91515 23.7656 8.20399 24.1158C7.97493 24.2184 7.74 24.3075 7.50043 24.3826C7.00513 24.5772 6.46455 24.627 5.9419 24.5263C5.41925 24.4256 4.93612 24.1785 4.54901 23.8139C3.40236 22.7591 2.46029 21.5025 1.76997 20.107C0.431733 17.6813 -0.169091 14.9189 0.0409752 12.1579C0.112437 10.8333 0.579427 9.56035 1.38187 8.50281C2.1843 7.44528 3.28548 6.65151 4.54374 6.22365C5.67217 5.86537 6.89037 5.91005 7.98941 6.35002C10.4519 7.30483 9.96288 7.2276 12.3673 6.35002C13.4439 5.89637 14.6318 5.77446 15.7784 5.99998C16.925 6.22549 17.9778 6.78811 18.8013 7.61549C18.9458 7.76146 19.0803 7.91684 19.2041 8.08061C19.2674 8.15433 19.3184 8.24911 19.3765 8.32458Z" fill="#282B2F"/>
<path d="M14.888 0C14.9581 0.689611 14.8867 1.38623 14.6783 2.04745C14.4699 2.70866 14.1289 3.32063 13.6758 3.84608C13.2228 4.37153 12.6674 4.79947 12.0433 5.10384C11.4192 5.4082 10.7396 5.58263 10.0458 5.61649C9.3704 3.35059 12.2233 0.022817 14.888 0Z" fill="#282B2F"/>
</svg>
