<svg width="72" height="72" viewBox="0 0 72 72" fill="none" xmlns="http://www.w3.org/2000/svg">
<path d="M32.167 22.5832C31.1084 22.5832 30.2503 23.4413 30.2503 24.4998C30.2503 25.5584 31.1084 26.4165 32.167 26.4165H47.5003C48.5589 26.4165 49.417 25.5584 49.417 24.4998C49.417 23.4413 48.5589 22.5832 47.5003 22.5832H32.167Z" fill="url(#paint0_linear_756_10171)"/>
<path d="M47.5003 34.0832L32.167 34.0832C31.1084 34.0832 30.2503 33.225 30.2503 32.1665C30.2503 31.108 31.1084 30.2498 32.167 30.2498L47.5003 30.2498C48.5589 30.2498 49.417 31.108 49.417 32.1665C49.417 33.225 48.5589 34.0832 47.5003 34.0832Z" fill="url(#paint1_linear_756_10171)"/>
<path d="M32.167 37.9165C31.1084 37.9165 30.2503 38.7746 30.2503 39.8332C30.2503 40.8917 31.1084 41.7498 32.167 41.7498H37.917C38.9755 41.7498 39.8337 40.8917 39.8337 39.8332C39.8337 38.7746 38.9755 37.9165 37.917 37.9165H32.167Z" fill="url(#paint2_linear_756_10171)"/>
<path fill-rule="evenodd" clip-rule="evenodd" d="M22.5837 55.1665V37.9165H20.667C17.4914 37.9165 14.917 35.3421 14.917 32.1665V20.6665C14.917 17.4909 17.4914 14.9165 20.667 14.9165H51.3337C54.5093 14.9165 57.0837 17.4909 57.0837 20.6665V55.1665C57.0837 55.857 56.7122 56.4942 56.1113 56.8344C55.5104 57.1746 54.773 57.1653 54.1809 56.81L45.8808 51.83L41.1889 56.5218C40.4404 57.2703 39.2269 57.2703 38.4784 56.5218L33.7865 51.83L25.4864 56.81C24.8943 57.1653 24.1569 57.1746 23.556 56.8344C22.9551 56.4942 22.5837 55.857 22.5837 55.1665ZM18.7503 20.6665C18.7503 19.608 19.6084 18.7498 20.667 18.7498C21.7255 18.7498 22.5837 19.608 22.5837 20.6665V34.0832H20.667C19.6084 34.0832 18.7503 33.225 18.7503 32.1665V20.6665ZM26.417 20.6665C26.417 19.9945 26.3017 19.3493 26.0898 18.7498H51.3337C52.3922 18.7498 53.2503 19.608 53.2503 20.6665V51.7813L46.5698 47.773C45.8156 47.3205 44.8503 47.4393 44.2284 48.0612L39.8337 52.4559L35.4389 48.0612C34.817 47.4393 33.8517 47.3205 33.0975 47.773L26.417 51.7813V20.6665Z" fill="url(#paint3_linear_756_10171)"/>
<defs>
<linearGradient id="paint0_linear_756_10171" x1="57.252" y1="14.8009" x2="-4.15035" y2="65.9007" gradientUnits="userSpaceOnUse">
<stop stop-color="#A0D800"/>
<stop offset="1" stop-color="#BBF613"/>
</linearGradient>
<linearGradient id="paint1_linear_756_10171" x1="57.252" y1="14.8009" x2="-4.15035" y2="65.9007" gradientUnits="userSpaceOnUse">
<stop stop-color="#A0D800"/>
<stop offset="1" stop-color="#BBF613"/>
</linearGradient>
<linearGradient id="paint2_linear_756_10171" x1="57.252" y1="14.8009" x2="-4.15035" y2="65.9007" gradientUnits="userSpaceOnUse">
<stop stop-color="#A0D800"/>
<stop offset="1" stop-color="#BBF613"/>
</linearGradient>
<linearGradient id="paint3_linear_756_10171" x1="57.252" y1="14.8009" x2="-4.15035" y2="65.9007" gradientUnits="userSpaceOnUse">
<stop stop-color="#A0D800"/>
<stop offset="1" stop-color="#BBF613"/>
</linearGradient>
</defs>
</svg>
