<svg width="72" height="72" viewBox="0 0 72 72" fill="none" xmlns="http://www.w3.org/2000/svg">
<path d="M20.3965 32.4426C22.0132 25.3176 28.388 20 36 20C41.8062 20 46.8932 23.0924 49.6985 27.7272L44.6108 26.0955C43.559 25.7582 42.4329 26.3374 42.0955 27.3892C41.7582 28.441 42.3374 29.5671 43.3892 29.9044L53.3892 33.1116C53.9976 33.3067 54.6625 33.1994 55.1786 32.8229C55.6948 32.4464 56 31.846 56 31.2071V20C56 18.8954 55.1046 18 54 18C52.8954 18 52 18.8954 52 20V23.9986C48.3528 19.1439 42.5448 16 36 16C26.4793 16 18.5167 22.6505 16.4956 31.5574C16.2512 32.6346 16.9263 33.706 18.0035 33.9504C19.0807 34.1948 20.1521 33.5198 20.3965 32.4426Z" fill="url(#paint0_linear_756_10163)"/>
<path d="M55.5044 40.4426C55.7488 39.3654 55.0737 38.294 53.9966 38.0496C52.9194 37.8052 51.848 38.4802 51.6036 39.5574C49.9868 46.6824 43.612 52 36 52C30.1274 52 24.9905 48.8364 22.2061 44.113L29.5149 45.9402C30.5865 46.2081 31.6724 45.5566 31.9403 44.485C32.2082 43.4134 31.5567 42.3276 30.4851 42.0597L18.4851 39.0597C17.8876 38.9103 17.2546 39.0445 16.7692 39.4235C16.2837 39.8025 16 40.3841 16 40.9999V51.9999C16 53.1045 16.8954 53.9999 18 53.9999C19.1046 53.9999 20 53.1045 20 51.9999L20 48.0014C23.6472 52.8561 29.4552 56 36 56C45.5207 56 53.4833 49.3495 55.5044 40.4426Z" fill="url(#paint1_linear_756_10163)"/>
<defs>
<linearGradient id="paint0_linear_756_10163" x1="56.1597" y1="15.8903" x2="-2.0876" y2="64.3645" gradientUnits="userSpaceOnUse">
<stop stop-color="#A0D800"/>
<stop offset="1" stop-color="#BBF613"/>
</linearGradient>
<linearGradient id="paint1_linear_756_10163" x1="56.1597" y1="15.8903" x2="-2.0876" y2="64.3645" gradientUnits="userSpaceOnUse">
<stop stop-color="#A0D800"/>
<stop offset="1" stop-color="#BBF613"/>
</linearGradient>
</defs>
</svg>
