<svg width="48" height="50" viewBox="0 0 48 50" fill="none" xmlns="http://www.w3.org/2000/svg">
<path d="M8.97068 40.4566C15.2988 46.7847 23.2316 48.7283 26.9832 49.1125C28.4749 49.3386 29.4241 48.5475 29.4919 47.3949C29.5823 46.3327 28.9269 45.4739 27.5934 45.2027C24.1808 44.6377 17.152 42.9878 11.8183 37.6089C3.16237 28.9755 1.44473 15.5735 8.58647 8.40914C14.3044 2.71383 23.7966 3.27884 30.8027 7.05312L33.7634 4.13766C24.7684 -1.33165 12.8354 -1.51245 5.76142 5.56149C-2.69115 14.0367 -1.69673 29.7892 8.97068 40.4566ZM43.3234 7.66333L45.2444 5.71969C46.2388 4.70267 46.3292 3.23364 45.3348 2.28442L44.6568 1.62901C43.7754 0.815394 42.3515 0.883195 41.3797 1.83241L39.4361 3.77605L43.3234 7.66333ZM21.2427 29.7214L41.6509 9.33576L37.741 5.44849L17.3554 25.8341L15.3892 30.5802C15.1406 31.213 15.7734 31.8232 16.3836 31.5972L21.2427 29.7214ZM17.5589 33.5634C24.7684 41.0668 37.176 43.8692 43.9562 37.1117C49.4707 31.5746 48.9961 21.7434 42.9844 13.2456L40.0915 16.1385C44.5212 22.67 45.3348 30.0378 41.1085 34.2641C35.9104 39.4622 27.4352 37.1117 21.8981 31.8232L17.5589 33.5634Z" fill="url(#paint0_linear_756_10148)"/>
<defs>
<linearGradient id="paint0_linear_756_10148" x1="48" y1="-0.000123322" x2="-23" y2="57.4999" gradientUnits="userSpaceOnUse">
<stop stop-color="#A0D800"/>
<stop offset="1" stop-color="#BBF613"/>
</linearGradient>
</defs>
</svg>
